<svg xmlns="http://www.w3.org/2000/svg" viewBox="0 0 512 512">
  <!-- Circle Border -->
  <path d="M486,256c0,127-103,230-230,230S26,383,26,256S129,26,256,26S486,129,486,256z" fill="none" stroke="#0055a4" stroke-width="28"/>

  <!-- The Figure - Traced style -->
  <g fill="#0055a4">
     <!-- Head -->
     <ellipse cx="180" cy="180" rx="35" ry="30" transform="rotate(-20 180 180)" />
     
     <!-- Upper Arm (Left/Back) -->
     <path d="M210,190 Q280,140 330,120 L340,135 Q290,160 225,205 Z" />
     
     <!-- Torso / Gi Top -->
     <path d="M190,210 Q160,240 170,280 Q140,250 160,220 Z" /> <!-- Back fold -->
     <path d="M175,220 Q220,220 250,200 L260,215 Q220,245 180,240 Z" /> <!-- Chest/Shoulder -->
     
     <!-- Belt Area -->
     <path d="M180,270 L240,250 L245,265 L185,285 Z" /> <!-- Belt horizontal -->
     <path d="M220,260 L200,320 L220,325 L240,265 Z" /> <!-- Belt knot drop 1 -->
     <path d="M230,260 L260,310 L245,320 L215,270 Z" /> <!-- Belt knot drop 2 -->

     <!-- Front Arm/Guard -->
     <path d="M260,220 Q300,210 320,190 L330,205 Q300,230 270,235 Z" />

     <!-- Standing Leg -->
     <path d="M190,280 Q185,350 190,400 L230,405 L230,420 L160,420 L160,405 L170,390 Q160,330 170,290 Z" />

     <!-- High Kicking Leg -->
     <path d="M240,260 Q300,220 360,160 Q400,120 420,100 L435,115 Q410,140 370,180 Q310,240 260,280 Z" />
     <!-- Foot -->
     <path d="M420,100 L450,130 L460,110 L430,80 Z" />
  </g>
</svg>
